/* XPM */
static char *f2faf63d3af542888472eba0b2e6f7181uYuvNWlAEWTIxby[] = {
/* columns rows colors chars-per-pixel */
"100 100 58 1 ",
"  c black",
". c #030006",
"X c #070707",
"o c #050009",
"O c #07000C",
"+ c #08000D",
"@ c #0B0B0B",
"# c #0C0C0C",
"$ c #0A0011",
"% c #0D0015",
"& c #0F0019",
"* c #11001D",
"= c #141115",
"- c gray9",
"; c #19111E",
": c #181818",
"> c #1D1D1D",
", c #130020",
"< c #140022",
"1 c #170722",
"2 c #160025",
"3 c #180028",
"4 c #1B002D",
"5 c #1C002F",
"6 c #1D0031",
"7 c #1F0034",
"8 c #200D2E",
"9 c #201D22",
"0 c #210037",
"q c #220A33",
"w c #210C30",
"e c #23003B",
"r c #24033A",
"t c #25053B",
"y c #26093B",
"u c #270D39",
"i c #280E39",
"p c #2D1E37",
"a c #291338",
"s c #2A1539",
"d c #2B1839",
"f c #2C1A38",
"g c #2E1F38",
"h c gray13",
"j c gray15",
"k c #2B252E",
"l c #2A2A2A",
"z c gray18",
"x c #2F2237",
"c c #2F2437",
"v c #2F2238",
"b c #302737",
"n c #322B36",
"m c #322C36",
"M c gray20",
"N c #333035",
"B c #343235",
"V c #353535",
/* pixels */
"eeeeeeeeeeeeeeeeeeeeeeeeeeeeeeeeeeeeeesBBBBBBBBBBBBBBBmeeeeeeeeeeeeeeeeeeeeeeeeeeeeeeeeeeeeeeeeeeeee",
"eeeeeeeeeeeeeeeeeeeeeeeeeeeeeeeyuVVVVVVVVVVVVVVVVVVVVVVVgyeeeeeeeeeeeeeeeeeeeeeeeeeeeeeeeeeeeeeeeeee",
"eeeeeeeeeeeeeeeeeeeeeeeeeeeeeeuBVVVVVVVVVVVVVVVVVVVVVVVVVVseeeeeeeeeeeeeeeeeeeeeeeeeeeeeeeeeeeeeeeee",
"eeeeeeeeeeeeeeeeeeeeeeeeeeeetxmVVVVVVVVVVVVVVVVVVVVVVVVVVVVxseeeeeeeeeeeeeeeeeeeeeeeeeeeeeeeeeeeeeee",
"eeeeeeeeeeeeeeeeeeeeeeeeeeeemVVVVVVVVVVVVVVVVVVVVVVVVVVVVVVVBaeeeeeeeeeeeeeeeeeeeeeeeeeeeeeeeeeeeeee",
"eeeeeeeeeeeeeeeeeeeeeeeeeeetVVVVVVVVVVVVVVVVVVVVVVVVVVVVVVVVVVueeeeeeeeeeeeeeeeeeeeeeeeeeeeeeeeeeeee",
"eeeeeeeeeeeeeeeeeeeeeeeeeyaBVVVVVVVVVVVVVVVVVVVVVVVVVVVVVVVVVVVaeeeeeeeeeeeeeeeeeeeeeeeeeeeeeeeeeeee",
"eeeeeeeeeeeeeeeeeeeeeeeetnVVVVVVVVVVVVVVVVVVVVVVVVVVVVVVVVVVVVVBseeeeeeeeeeeeeeeeeeeeeeeeeeeeeeeeeee",
"eeeeeeeeeeeeeeeeeeeeeeeemVVVVVVVVVVVVVVVVVVVVVVVVVVVVVVVVVVVVVVVBaeeeeeeeeeeeeeeeeeeeeeeeeeeeeeeeeee",
"eeeeeeeeeeeeeeeeeeeeeeeVVVVVVVVVVVVVVVVVVVVVVVVVVVVVVVVVVVVVVVVVVfeeeeeeeeeeeeeeeeeeeeeeeeeeeeeeeeee",
"eeeeeeeeeeeeeeeeeeeeeymVVVVVVVVVVVVVVVVVVVVVVVVVVVVVVVVVVVVVVVVVVVueeeeeeeeeeeeeeeeeeeeeeeeeeeeeeeee",
"eeeeeeeeeeeeeeeeeeeeynVVVVVVVVVVVVVVVVVVVVVVVVVVVVVVVVVVVVVVVVVVVVxeeeeeeeeeeeeeeeeeeeeeeeeeeeeeeeee",
"eeeeeeeeeeeeeeeeeeeeaVVVVVVVVVVVVVVVVVVVVVVVVVVVVVVVVVVVVVVVVVVVVVVeeeeeeeeeeeeeeeeeeeeeeeeeeeeeeeee",
"eeeeeeeeeeeeeeeeeeetVVVVVVVVVVVVVVVVVVVVVVVVVVVVVVVVVVVVVVVVVVVVVVVBeeeeeeeeeeeeeeeeeeeeeeeeeeeeeeee",
"eeeeeeeeeeeeeeeeeeetVVVVVVVVVVVVVVVVVVVVVVVVVVVVVVVVVVVVVVVVVVVVVVVVeeeeeeeeeeeeeeeeeeeeeeeeeeeeeeee",
"eeeeeeeeeeeeeeeeeeefVVVVVVVVVVVVVVVVVVVVVVVVVVVVVVVVVVVVVVVVVVVVVVVVaeeeeeeeeeeeeeeeeeeeeeeeeeeeeeee",
"eeeeeeeeeeeeeeeeeeeVVVVVVVVVVVVVVVVVVVVVVVVVVVVVVVVVVVVVVVVVVVVVVVVVneeeeeeeeeeeeeeeeeeeeeeeeeeeeeee",
"eeeeeeeeeeeeeeeeeeeVVVVVVVVVVVVVVVVVVVVVVVVVVVVVVVVVVVVVVVVVVVVVVVVVneeeeeeeeeeeeeeeeeeeeeeeeeeeeeee",
"eeeeeeeeeeeeeeeeeeeVVVVVVVVVVVVVVVVVVVVVVVVVVVVVVVVVVVVVVVVVVVVVVVVVneeeeeeeeeeeeeeeeeeeeeeeeeeeeeee",
"eeeeeeeeeeeeeeeeeeeVVVVVVVVVVVVVVVVVVVVVVVVVVVVVVVVVVVVVVVVVVVVVVVVVmyeeeeeeeeeeeeeeeeeeeeeeeeeeeeee",
"eeeeeeeeeeeeeeeeeeeVVVVVVVVVVVVVVVVVVVVVVVVVVVVVVVVVVVVVVVVVVVVVVVVVVgeeeeeeeeeeeeeeeeeeeeeeeeeeeeee",
"eeeeeeeeeeeeeeeeeeeVVVVVVVVVVVVVVVVVVVVVVVVVVVVVVVVVVVVVVVVVVVVVVVVVVgeeeeeeeeeeeeeeeeeeeeeeeeeeeeee",
"eeeeeeeeeeeeeeeeeeeVVVVVVVVVVVVVVVVVVVVVVVVVVVVVVVVVVVVVVVVVVVVVVVVVVgeeeeeeeeeeeeeeeeeeeeeeeeeeeeee",
"eeeeeeeeeeeeeeeeeeeVVVVVVVVVVVVVVVVVVVVVVVVVVVVVVVVVVVVVVVVVVVVVVVVVVgeeeeeeeeeeeeeeeeeeeeeeeeeeeeee",
"eeeeeeeeeeeeeeeeeeeVVVVVVVVVVVVVVVVVVVVVVVVVVVVVVVVVVVVVVVVVVVVVVVVVVgeeeeeeeeeeeeeeeeeeeeeeeeeeeeee",
"eeeeeeeeeeeeeeeeeeeVVVVVVVVVVVVVVVVVVVVVVVVVVVVVVVVVVVVVVVVVVVVVVVVVVgeeeeeeeeeeeeeeeeeeeeeeeeeeeeee",
"eeeeeeeeeeeeeeeeeeeVVVVVVVVVVVVVVVVVVVVVVVVVVVVVVVVVVVVVVVVVVVVVVVVVVVaeeeeeeeeeeeeeeeeeeeeeeeeeeeee",
"eeeeeeeeeeeeeeeeeeeVVVVVVVVVVVVVVVVVVVVVVVVVVVVVVVVVVVVVVVVVVVVVVVVVVVaeeeeeeeeeeeeeeeeeeeeeeeeeeeee",
"eeeeeeeeeeeeeeeaeeeVVVVVVVVVVVVVVVVVVVVVVVVVVVVVVVVVVVVVVVVVVVVVVVVVVVaeeeeeeeeeeeeeeeeeeeeeeeeeeeee",
"eeeeeeeeeeeeeeeneeeVVVVVVVVVVVVVVVVVVVVVVVVVVVVVVVVVVVVVVVVVVVVVVVVVVVaeeeeeeeeeeeeeeeeeeeeeeeeeeeee",
"eeeeeeeeeeeeeeeneeeVVVVVVVVVVVVVVVVVVVVVVVVVVVVVVVVVVVVVVVVVVVVVVVVVVVaeeeeeeeeeeeeeeeeeeeeeeeeeeeee",
"eeeeeeeeeeeeeeemteeVVVVVVVVVVVVVVVVVVVVVVVVVVVVVVVVVVVVVVVVVVVVVVVVVmmieeeeeeeeeeeeeeeeeeeeeeeeeeeee",
"eeeeeeeeeeeeeeebgeeVVVVVVVVVVVVVVVVVVVVVVVVVVVVVVVVVVVVVVVVVVVVVVVVVeeeeeeeeeeeeeeeeeeeeeeeeeeeeeeee",
"eeeeeeeeeeeeeeeygeedVVVVVVVVVVVVVVVVVVVVVVVVVVVVVVVVVVVVVVVVVVVVVVVVeeeeeeeeeeeeeeeeeeeeeeeeeeeeeeee",
"eeeeeeeeeeeeeeerteeesVVVVVVVVVVVVVVVVVVVVVVVVVVVVVVVVVVVVVVVVVVVVVVyeeeeeeeeeeeeeeeeeeeeeeeeeeeeeeee",
"eeeeeeeeeeeeeeeeeeeeefVVVVVVVVVVVVVVVVVVVVVVVVVVVVVVVVVVVVVVVVVVVByeeeeeeeeeeeeeeeeeeeeeeeeeeeeeeeee",
"eeeeeeeeeeeeeeeeeeeeeenVVVVVVVVVVVVVVVVVVVVVVVVVVVVVVVVVVVVVVVVVBaeeeeeeeeeeeeeeeeeeeeeeeeeeeeeeeeee",
"eeeeeeeeeeeeeeeeeeeeeenVVVVVVVVVVVVVVVVVVVVVVVVVVVVVVVVVVVVVVVVBaeeeeeeeeeeeeeeeeeeeeeeeeeeeeeeeeeee",
"eeeeeeeeeeeeeeeeeeeeeenVVVVVVVVVVVVVVVVVVVVVVVVVVVVVVVVVVVVVVVVBeeeeeeeeeeeeeeeeeeeeeeeeeeeeeeeeeeee",
"eeeeeeeeeeeeeeeeeeeeeeeVVVVVVVVVVVVVVVVVVVVVVVVVVVVVVVVVVVVVVVVVbeeeeeeeeeeeeeeeeeeeeeeeeeeeeeeeeeee",
"eeeeeeeeeeeeeeeeeeeeeeeenVVVVVVVVVVVVVVVVVVVVVVVVVVVVVVVVVVVVVVVbeeeeeeeeeeeeeeeeeeeeeeeeeeeeeeeeeee",
"eeeeeeeeeeeeeeeeeeeeeeeeuVVVVVVVVVVVVVVVVVVVVVVVVVVVVVVVVVVVVVVBaeeeeeeeeeeeeeeeeeeeeeeeeeeeeeeeeeee",
"eeeeeeeeeeeeeeeeeeeeeeeetxVVVVVVVVVVVVVVVVVVVVVVVVVVVVVVVVVVVVVieeeeeeeeeeeeeeeeeeeeeeeeeeeeeeeeeeee",
"eeeeeeeeeeeeeeeeeeeeeeeeeebVVVVVVVVVVVVVVVVVVVVVVVVVVVVVVVVVVsreeeeeeeeeeeeeeeeeeeeeeeeeeeeeeeeeeeee",
"eeeeeeeeeeeeeeeeeeeeeeeeeeenVVVVVVVVVVVVVVVVVVVVVVVVVVVVVVVceeeeeeeeeeeeeeeeeeeeeeeeeeeeeeeeeeeeeeee",
"eeeeeeeeeeeeeeeeeeeeeeeeeeeevnVVVVVVVVVVVVVVVVVVVVVVVVVVVcveeeeeeeeeeeeeeeeeeeeeeeeeeeeeeeeeeeeeeeee",
"eeeeeeeeeeeeeeeeeeeeeeeeeeeeetnVVVVVVVVVVVVVVVVVVVVVVVVVVbvvvvvpeeeeeeeeeeeeeeeeeeeeeeeeeeeeeeeeeeee",
"eeeeeeeeeeeeeeeeeeeeeeeeeeeeeettVVVVVVVVVVVVVVVVVVVVVVVVVVVVVVVVgeeeeeeeeeeeeeeeeeeeeeeeeeeeeeeeeeee",
"eeeeeeeeeeeeeeeeeeeeeeeeeeeeeeeeeeetBVVVVVVVVVVVVVVVVVVVVVVVVVVVVdeeeeeeeeeeeeeeeeeeeeeeeeeeeeeeeeee",
"eeeeeeeeeeeeeeeeeeeeeeeeeeeeeeeeeeebVVVVVVVVVVVVVVVVVVVVVVVVVVVVVxteeeeeeeeeeeeeeeeeeeeeeeeeeeeeeeee",
"eeeeeeeeeeeeeeeeeeeeeeeeeeeeeeeeeeimVVVVVVVVVVVVVVVVVVVVVVVVVVVVVVueeeeeeeeeeeeeeeeeeeeeeeeeeeeeeeee",
"eeeeeeeeeeeeeeeeeeeeeeeeeeeeeeeeeefVVVVVVVVVVVVVVVVVVVVVVVVVVVVVVVmeeeeeeeeeeeeeeeeeeeeeeeeeeeeeeeee",
"eeeeeeeeeeeeeeeeeeeeeeeeeeeeeeeeeefVVVVVVVVVVVVVVVVVVVVVVVVVVVVVVVVeeeeeeeeeeeeeeeeeeeeeeeeeeeeeeeee",
"eeeeeeeeeeeeeeeeeeeeeeeeeeeeeeeeeefVVVVVVVVVVVVVVVVVVVVVVVVVVVVVVVVieeeeeeeeeetteeeeeeeeeeeeeeeeeeee",
"eeeeeeeeeeeeeeeeeeeeeeeeeeeeeeeeeefVVVVVVVVVVVVVVVVVVVVVVVVVVVVVVVVVeeeeeeeeeefxeeeeeeeeeeeeeeeeeeee",
"eeeeeeeeeeeeeeeeeeeeeeeeeeeeeeeeeefVVVVVVVVVVVVVVVVVVVVVVVVVVVVVVVVVeeeebbieeetnreeeeeeeeeeeeeeeeeee",
"eeeeeeeeeeeeeeeeeeeeeeeeeeeeeeeeeefVVVVVVVVVVVVVVVVVVVVVVVVVVVVVVVVVBBBBVVVyeeebBeeeeeeeeeeeeeeeeeee",
"eeeeeeeeeeeeeeeeeeeeeeeeeeeeeeeeervVVVVVVVVVVVVVVVVVVVVVVVVVVVVVVVVVVVVVVVVyeeeeneeeeeeeeeeeeeeeeeee",
"eeeeeeeeeeeeeeeeeeeeeeeeeeeeeeeeeiVVVVVVVVVVVVVVVVVVVVVVVVVVVVVVVVVVVVVVVVVyeeeeeeeeeeeeeeeeeeeeeeee",
"eeeeeeeeeeeeeeeeeeeeeeeeeeeeeeeeeiVVVVVVVVVVVVVVVVVVVVVVVVVVVVVVVVVVVVVVVVxreeeeeeeeeeeeeeeeeeeeeeee",
"eeeeeeeeeeeeeeeeeeeeeeeeeeeeeeeeeiVVVVVVVVVVVVVVVVVVVVVVVVVVVVVVVVVVVVsttteeeeeeeeeeeeeeeeeeeeeeeeee",
"eeeeeeeeeeeeeeeeeeeeeeeeeeeeeeeeeiVVVVVVVVVVVVVVVVVVVVVVVVVVVVVVVVVVVVVteeeeeeeeeeeeeeeeeeeeeeeeeeee",
"eeeeeeeeeeeeeeeeeeeeeeeeeeeeeeeeeiVVVVVVVVVVVVVVVVVVVVVVVVVVVVVVVVVVVVVseeeeeeeeeeeeeeeeeeeeeeeeeeee",
"eeeeeeeeeeeeeeeeeeeeeeeeeeeeeeeeetbVVVVVVVVVVVVVVVVVVVVVVVVVVVVVVVVVVVVVeeeeeeeeeeeeeeeeeeeeeeeeeeee",
"eeeeeeeeeeeeeeeeeeeeeeeeeeeeeeeeeefVVVVVVVVVVVVVVVVVVVVVVVVVVVVVVVVVVVVVeeeeeeeeeeeeeeeeeeeeeeeeeeee",
"eeeeeeeeeeeeeeeeeeeeeeeeeeeeeeeeeeebVVVVVVVVVVVVVVVVVVVVVVVVVVVVVVVVVVVVreeeeeeeeeeeeeeeeeeeeeeeeeee",
"eeeeeeeeeeeeeeeeeeeeeeeeeeeeeeeeeeegVVVVVVVVVVVVVVVVVVVVVVVVVVVVVVVVVVVVmeeeeeeeeeeeeeeeeeeeeeeeeeee",
"eeeeeeeeeeeeeeeeeeeeeeeeeeeeeeeeeeeeBVVVVVVVVVVVVVVVVVVVVVVVVVVVVVVVVVVVNaeeeeeeeeeeeeeeeeeeeeeeeeee",
"eeeeeeeeeeeeeeeeeeeeeeeeeeeeeeeeeeeeBVVVVVVVVVVVVVVVVVVVVVVVVVVVVVVVVVVVVxeeeeeeeeeeeeeeeeeeeeeeeeee",
"eeeeeee          eeeeeeeeeeeeeeeeeeeBVVVVVVVVVVVVVVVVVVVVVVVVVVVVVVVVVVVVVseeeeeeeeeeeeeeeeeeeeeeeee",
"eeeee               &eeeeeeeeeeeeeeeBVVVVVVVVVVVVVVVVVVVVVVVVVVVVVVVVVVVVVseeeeeeeeeeeeeeeeeeeeeeeee",
"eeeee%                $eeeeeeeeeeeeeBVVVVVmnVVVVVVVVVVVVVVVVVVVVVVVVVVVVVVseeeeeeeeeeeeeeeeeeeeeeeee",
"eeeefe                  &eeeeeeeeeeeaaaaaaupVVVVVVVVVVVVVVVVVVVVVVVVVVVVVVseeeeeeeeeeeeeeeeeeeeeeeee",
"eeeeeee4                0eeeeeeeeeeeeeeeeeepVVVVVVVVVVVVVVVVVVVVVVVVVVVVVVByeeeeeeeeeeeeeeeeeeeeeeee",
"eeeeeeeeee              &eeeeeeeeeeeeeeeeeaVVVVVVVVVVVVVVVVVVVVVVVVVVVVVVVVVteeeeeeeeeeeeeeeeeeeeeee",
"eeeeeeeeeeeeee0            3eeeeeeeeeeeeeeaVVVVVVVVVVVVVVVVVVVVVVVVVVVVVVVVVBieeeeeeeeeeeeeeeeeeeeee",
"eeeeeeeeeeeeeee               eeeeeeeeeeeeaVVVVVVVVVVVVVVVVVVVVVVVVVVVVVVVVVVmaeeeeeeeeeeeeeeeeeeeee",
"eeeeeeeeeeeeeee4                   7eceeetmVVVVVVVVVVVVVVVVVVVVVVVVVVVVVVVVVVVfeeeeeeeeeeeeeeeeeeeee",
"eeeeeeeeeeeeeeeeO                 $0eeeeeVVVVVVVVVVVVVVVVVVVVVVVVVVVVVVVVVVVVNdeeeeeeeeeeeeeeeeeeeee",
"eeeeeeeeeeeeeeeee*                   eeeiVVVVVVVVVVVVVVVVVVVVVVVVVVVVVVVVVVVByeeeeeeeeeeeeeeeeeeeeee",
"eeeeeeeeeeeeeeeeeee                    ,mVVVVVVVVVVVVVVVVVVVVVVVVVVVVVVVVVVVVmieeeeeeeeeeeeeeeeeeeee",
"eeeeeeeeeeeeeeeeeeee                 h  @VVVVVVVVVVVVVVVVVVVVVVVVVVVVVVVVVVVVVfeeeeeeeeeeeeeeeeeeeee",
"eeeeeeeeeeeeeeeeeeeee0000%           l     9VVVVVVVVVVVVVVVVVVVVVVVVVVVVVVVVVVfeeeeeeeeeeeeeeeeeeeee",
"eeeeeeeeeeeeeeeeeeeeeeeee6           l     >VVVVVVVVVVVVVVVVVVVVVVVVVVVVVVVVVBseeeeeeeeeeeeeeeeeeeee",
"eeeeeeeeeeeeeeeeeeeeeeeeee$          M#    >VVVVVVVVVVVVVVVVVVVVVVVggggBVVVVVbeeeeeeeeeeeeeeeeeeeeee",
"eeeeeeeeeeeeeeeeeeeeeeeeee%        : -zjX  >VVVVVVVVVVVVVVVVVVVaaaaeeeeiVVVVVbeeeeeeeeeeeeeeeeeeeeee",
"eeeeeeeeeeeeeeeeeeeeeeeeexe02$     j  XjX  >VVVVVVVVVVVVVVVVxtteeeeeeeeeVVVVVbeeeeeeeeeeeeeeeeeeeeee",
"eeeeeeeeeeeeeeeeeeeeeeeeeebree,    j   >X  >VVVVVVVVVVVBmueeeeeeeeeeeebVVVVVBeeeeeeeeeeeeeeeeeeeeeee",
"eeeeeeeeeeeeeeeeeeeeeeeeeardcte<   :      XjVVVVVVVVVVVj$eeeeeeeeeeeeebVVVVVgeeeeeeeeeeeeeeeeeeeeeee",
"eeeeeeeeeeeeeeeeeeeeeeeeeevreste2       > =VVVVVVVVVVVM#  7eeeeeeeeeeebVVVVVeeeeeeeeeeeeeeeeeeeeeeee",
"eeeeeeeeeeeeeeeeeeeeeeeeeeeieeey0%      z =VVVVVVVVVVa1    3eeeeeeeeeetNVVVVeeeeeeeeeeeeeeeeeeeeeeee",
"eeeeeeeeeeeeeeeeeeeeeeeeeeeeeeeeb7+     l ;VVVVVVVVNaeee3   oeeeeeeeeeeBVVVVeeeeeeeeeeeeeeeeeeeeeeee",
"eeeeeeeeeeeeeeeeeeeeeeeeeeeeeeeeef7$     .;VVVVVVVgeeeeeee,   &eeeeeeeexVVVbeeeeeeeeeeeeeeeeeeeeeeee",
"eeeeeeeeeeeeeeeeeeeeeeeeeeeeeeeeeee5+    okVVVVVVfeeeeeeeeee3$$&6eeeeeeedddteeeeeeeeeeeeeeeeeeeeeeee",
"eeeeeeeeeeeeeeeeeeeeeeeeeeeeeeeeeeee2    XVVVVVVdeeeeeeeeeeeeee77eeeeeeeeeeeeeeeeeeeeeeeeeeeeeeeeeee",
"eeeeeeeeeeeeeeeeeeeeeeeeeeeeeeeeeeee6    VVVVVVgeeeeeeeeeeeeeeeeeeeeeeeeeeeeeeeeeeeeeeeeeeeeeeeeeeee",
"eeeeeeeeeeeeeeeeeeeeeeeeeeeeeeeeeeeee<  #VVVVVBseeeeeeeeeeeeeeeeeeeeeeeeeeeeeeeeeeeeeeeeeeeeeeeeeeee",
"eeeeeeeeeeeeeeeeeeeeeeeeeeeeeeeeeeeee6. zVVVVVneeeeeeeeeeeeeeeeeeeeeeeeeeeeeeeeeeeeeeeeeeeeeeeeeeeee",
"eeeeeeeeeeeeeeeeeeeeeeeeeeeeeeeeeeeeee6ozVVVVVneeeeeeeeeeeeeeeeeeeeeeeeeeeeeeeeeeeeeeeeeeeeeeeeeeeee",
"eeeeeeeeeeeeeeeeeeeeeeeeeeeeeeeeeeeeeeeew88888qeeeeeeeeeeeeeeeeeeeeeeeeeeeeeeeeeeeeeeeeeeeeeeeeeeeee"
};
