/* XPM */
static char *_e373c4e966f49c9c01b7495ecf97c10bFmuEwz3pzWtReiP[] = {
/* columns rows colors chars-per-pixel */
"100 100 76 1 ",
"  c #000001",
". c #05040A",
"X c #09000E",
"o c #05080D",
"O c #13100E",
"+ c #0C0013",
"@ c #070A11",
"# c #090C15",
"$ c #0F0019",
"% c #0A0F19",
"& c #11001C",
"* c #0C111D",
"= c #181412",
"- c #181818",
"; c #150024",
": c #170028",
"> c #1A002B",
", c #160A2B",
"< c #0E1422",
"1 c #101727",
"2 c #121A2B",
"3 c #1E0032",
"4 c #151F33",
"5 c #200036",
"6 c #23003B",
"7 c #162035",
"8 c #172238",
"9 c #19243C",
"0 c #322A25",
"q c #3E3E3E",
"w c #250741",
"e c #260C46",
"r c #251248",
"t c #28124C",
"y c #2A1751",
"u c #1B2740",
"i c #1C2944",
"p c #1E2C49",
"a c #202E4C",
"s c #21304F",
"d c #223253",
"f c #253659",
"g c #27395E",
"h c #28385F",
"j c #293B62",
"k c #2B3F68",
"l c #2C406B",
"z c #2D416D",
"x c #2E4370",
"c c #2F4471",
"v c #304673",
"b c #314776",
"n c #314877",
"m c #32497A",
"M c #334B7C",
"N c #344B7D",
"B c #344C7F",
"V c #69584E",
"C c #7F6B5E",
"Z c #354D81",
"A c #364F84",
"S c #365083",
"D c #375186",
"F c #385186",
"G c #385288",
"H c #3A548B",
"J c #3B568E",
"K c #3B5790",
"L c #3C5790",
"P c #3C5891",
"I c #898989",
"U c #AEAEAE",
"Y c #CBAA96",
"T c #E2BEA7",
"R c #EFEFEF",
"E c white",
/* pixels */
"6666666666666666666666666666666666666666666666666666666666666666666666666666666666666666666666666666",
"6666666666666666666666666666666666666666666666666666666666666666666666666666666666666666666666666666",
"6666666666666666666666666666666666666666666666666666666666666666666666666666666666666666666666666666",
"6666666666666666666666666666666666666666666666666666666666666666666666666666666666666666666666666666",
"6666666666666666666666666666666666666666666666666666666666666666666666666666666666666666666666666666",
"6666666666666666666666666666666666666666666666666666666666666666666666666666666666666666666666666666",
"6666666666666666666666666666666666666666666666666666666666666666666666666666666666666666666666666666",
"6666666666666666666666666666666666666666666666666666666666666666666666666666666666666666666666666666",
"6666666666666666666666666666666666666666666666666666666666666666666666666666666666666666666666666666",
"6666666666666666666666666666666666666666666666666666666666666666666666666666666666666666666666666666",
"6666666666666666666666666666666666666666666666666666666666666666666666666666666666666666666666666666",
"6666666666666666666666666666666666666666666666666666666666666666666666666666666666666666666666666666",
"6666666666666666666666666666666666666666666666666666666666666666666666666666666666666666666666666666",
"6666666666666666666666666666666666666666666666666666666666666666666666666666666666666666666666666666",
"6666666666666666666666666666666666666666666666666666666666666666666666666666666666666666666666666666",
"6666666666666666666666666666666666666666666666666666666666666666666666666666666666666666666666666666",
"6666666666666666666666666666666666666666666666666666666666666666666666666666666666666666666666666666",
"6666666666666666666666666666666666666666666666666666666666666666666666666666666666666666666666666666",
"6666666666666666666666666666666666666666666666666666666666666666666666666666666666666666666666666666",
"6666666666666666666666666666666666666666666666666666666666666666666666666666666666666666666666666666",
"6666666666666666666666666666666666666666666666666666666666666666666666666666666666666666666666666666",
"6666666666666666666666666666666666666666666666666666666666666666666666666666666666666666666666666666",
"6666666666666666666666666666666666666666666666666666666666666666666666666666666666666666666666666666",
"6666666666666666666666666666666666666666666666666666666666666666666666666666666666666666666666666666",
"6666666666666666666666666666666666666666666666666666666666666666666666666666666666666666666666666666",
"6666666666666666666666666666666666666666666666666666666666666666666666666666666666666666666666666666",
"6666666666666666666666666666666666666666666666666666666666666666666666666666666666666666666666666666",
"6666666666666666666666666666666666666666666666666666666666666666666666666666666666666666666666666666",
"6666666666666666666666666666666666666666666666666666666666666666666666666666666666666666666666666666",
"6666666666666666666666666666666666666666666666666666666666666666666666666666666666666666666666666666",
"6666666666666666666666666666666666666666666666666666666666666666666666666666666666666666666666666666",
"6666666666666666666666666666666666666666666666666666666666666666666666666666666666666666666666666666",
"6666666666666666666666666666666666666666666666666666666666666666666666666666666666666666666666666666",
"6666666666666666666666666666666666666666666666666666666666666666666666666666666666666666666666666666",
"6666666666666666666666666666666666666666666666666666666666666666666666666666666666666666666666666666",
"6666666666666666666666666666666666666666666666666666666666666666666666666666666666666666666666666666",
"6666666666666666666666666666666666666666666666666666666666666666666666666666666666666666666666666666",
"6666666666666666666666666666666666666666666666666666666666666666666666666666666666666666666666666666",
"6666666666666666666666666666666666666666666666666666666666666666666666666666666666666666666666666666",
"6666666666666666666666666666666666666666666666666666666666666666666666666666666666666666666666666666",
"6666666666666666666666666666666666666666666666666666666666666666666666666666666666666666666666666666",
"6666666666666666666666666666666666666666666666666666666666666666666666666666666666666666666666666666",
"6666666666666666666666666666666666666666666666666666666666666666666666666666666666666666666666666666",
"6666666666666666666666666666666666666666666666666666666666666666666666666666666666666666666666666666",
"6666666666666666666666666666666666666666666666666666666666666666666666666666666666666666666666666666",
"6666666666666666666666666666666666666666666666666666666666666666666666666666666666666666666666666666",
"6666666666666666666666666666666666666666666666666666666666666666666666666666666666666666666666666666",
"6666666666666666666666666666666666666666666666666666666666666666666666666666666666666666666666666666",
"6666666666666666666666666666666666666666666666666666666666666666666666666666666666666666666666666666",
"6666666666666666666666666666666666666666666666666666666666666666666666666666666666666666666666666666",
"6666666666666666666666666666666666666666666666666666666666666666666666666666666666666666666666666666",
"6666666666666666666666666666666666666666666666666666666666666666666666666666666666666666666666666666",
"6666666666666666666666666666666666666666666666666666666666666666666666666666666666666666666666666666",
"6666666666666666666666666666666666666666666666666666666666666666666666666666666666666666666666666666",
"6666666666666666666666666666666666666666666666666666666666666666666666666666666666666666666666666666",
"6666666666666666666666666666666666666666666666666666666666666666666666666666666666666666666666666666",
"6666666666666666666666666666666666666666666666666666666666653333333333333333566666666666666666666666",
"666666666666666666666666666666666666666666666666666666666;&X8iuuuuupppppppp9X&6666666666666666666666",
"66666666666666666666666666666666666666666666666666666663.hzzHPJJJJZPPPPPPPPJm@+666666666666666666666",
"666666666666666666666666666666666666666666666666666665>%fPPPPPPPP4***.bHPPPPPPm.>6666666666666666666",
"66666666666666666666666666666666666666666666666666665XuHPPPPPPPPG2PGJs24PPPPPPJk.;666666666666666666",
"6666666666666666666666666666666666666666666666666666@mJPPPPPPPPPgdPZJPH**PPPPPPPS ;66666666666666666",
"66666666666666666666666666666666666666666666666666&%DPPPPPPPPPPZ.gZZJPJJ.nPDHPPJDbo66666666666666666",
"6666666666666666666666666666666666666666666666666$*mPPPPPPPPPPHZ1ZZZJPJGpiPPPPPJPP8$6666666666666666",
"666666666666666666666666666666666666666666666666+.JPPGJPPPPPPPFo1ZZDPZPPZiPPPPPPPZM 6666666666666666",
"666666666666666666666666666666666666666666666663XPPPPPPPPPPPPGZ ZZZZJPPPZiPPPPPPDAZ1+666666666666666",
"66666666666666666666666666666666666666666666666XuPPPPPPPPPGPFZZdZZZJPPPPHbPPPPPPPJHH.>66666666666666",
"666666666666666666666666666666666666666666666667PPPPPPPPPPJGPPPPPPPHJPPPPPPPPPPPPPPPj;66666666666666",
"6666666666666666666666666666666666666666666666 PPPPPPPPPPPPPPPPPPPPPPPPPPPPPPPPPPPPPv,66666666666666",
"6666666666666666666666666666666666666666666666 PPPPPPPPPPPPPPPPPPPPPPPPPPPPPPPPPPPPPP4>6666666666666",
"6666666666666666666666666666666666666666666666.PPPGZZPPPPPPPPPPPPPPPPPPPPPPPPPPPPPPPPP;6666666666666",
"666666666666666666666666666666666666666666666$PPPPADPJHPPHPPPPPPJJPPPPPPPPPPPPPPPPPPPP>6666666666666",
"6666663.     $3356666666666666666666666666666$PPGPJLPJJPPJPPPPPPKFPPPPPPPPPPPPJDDGPPPPr6666666666666",
"666666>          &>3666666666666666666666666>.PHJPPAZZJZGZLPPPPPPPZPDZZJPPPPPKZZZZZZLPy6666666666666",
"6666666X            ;:>666666666666666666666>dGJJPDDLJPFGGGPHPPPPPPPPPPHPPHGGZFZZZZZZJt6666666666666",
"6666666>+             .&;5666666666666666666.dZPPADLPJFPJDFGZPPPPPPPPLAZAAZZJJPJJGZZZHt6666666666666",
"666666665&               X&>66666666666666661ZPPPJPPZGPPPJPPPJZZFPPJZPHZJKPJGPZGJZZZZHt6666666666666",
"6666666666>                .+;666666666666661DPPPZJJGPPPPGPPGHJGPPPPPPPHGJPPPPGDZZZZZJe6666666666666",
"666666666663                  X$6666666666662LPPPJGZJPPPPDDPJJPPZZZPPDPPPPPPPDZZZZZZJPe6666666666666",
"6666666666666+                   .566666666 9PPPPPPFPKPPPPJHPJZZPPPPJJJZZZZZZZZHPPPPPDw6666666666666",
"66666666666666;                     >666666 PPPJJPPPPGFGGGGGLGGGGGGGZZZZZZZZDGHPPPPPHD66666666666666",
"666666666666666>.                     $3666 PPPHZZPPPLZZZZZZZZZZZZZZZZZZZZJJLPPPPZHPDD66666666666666",
"6666666666666665;                       .;3 PJZPPZJPPPPPPDAAAZZZZZZAAAAJPPPJJPPPPPPPZZ66666666666666",
"6666666666666666&                           FZZFJGZJPPPPPPPPPJGGGGGPPPPPPPPGJPPPPPPPZB66666666666666",
"6666666666666666>X                          2ZZZZLZZPPPPPPPPPPPPPPPPPPPPPPPPPPPPZZHZZN66666666666666",
"66666666666666665&                       .111ZZZZjZZZJPJZJPPPPPPPPPPPPPPPPPJJJGZDGJZG266666666666666",
"666666666666666663.                      kPP@kZZZ dZZGPPJLFJPPPPPPPPPPPPKFFZZZZZKPFZj#66666666666666",
"666666666666666666X                    sJJHPjdZZZb7ZZZJZPPJZZDPPPPPPPZPDJZZZZZZGPPFZf;66666666666666",
"666666666666666666&                   iHgDHPcoZZZm#iZZGJZGJGJJJPGPPDZZFDDZZZZZ.jPPFZi;66666666666666",
"666666666666666666>+                 dPPoKJPP42ZZZz#7ZZGJHDGHPPPPPPPJHHFDZZZZ7*GPPF2X366666666666666",
"6666666666666666666:.               pPP9DPFPPP 2ZZZZ@BZZZJPPZZZZPPPHZZZZZZZl  APZJB 6666666666666666",
"66666666666666666666;            %.PPPz*ZJHPJHL<8ZZGb9dZZZZFHHHHFZZZZZZZZld.fDHGZb<66666666666666666",
"666666666666666666663$          om*DDD4xZl11JJDb*1ZZZz@4ZZZZZZZZZZZZZZZZ<#pjJPZGZ*$66666666666666666",
"66666666666666666665;+.         PJ<#Zm*NZZGo1BZZZ.4BZZZ.9mZZZZZZZZZZZmm<#ZZPLLJM.+666666666666666666",
"666666666666666666663$         2Pakoa.1pZZZZ<dZZZm 8ZZZm44aaaZZZZZaaa44vFJHJZZb<$6666666666666666666",
"6666666666666666666663+        zKik   jpZZZZb7ZZZB8 1ZZDJZjj.**<**jjjJJLPPZDZ2%$66666666666666666666",
"66666666666666666666663X    . iJB9O=C0b8AZZZZ4ZZZZpU-7BZZJKPPZZZZJPPKPPDJGZc8 +666666666666666666666",
"666666666666666666666663$  @l.DZc0YTTT*8MZZZZZZZZZjoRq8ijZZGGGGGJJGGZGGZZZd &56666666666666666666666",
"6666666666666666666666663&.1z.GZcVTTTT*8*ZZZZZZZZZZ*EI  ocZZZZZZZZZZZZZZZd 3666666666666666666666666",
"66666666666666666666666665;                                             .X36666666666666666666666666"
};
